<svg fill="none" xmlns="http://www.w3.org/2000/svg" viewBox="0 0 25 25">
<path fill-rule="evenodd" clip-rule="evenodd" d="M14.037 4H4a1 1 0 0 0-1 1v13H0v2a1 1 0 0 0 1 1h22a1 1 0 0 0 1-1v-2h-3V9.82l-.997-.725-.003.002V18H4V5h10.418a1.445 1.445 0 0 1-.381-1Z" fill="#fff"/>
<path opacity=".6" fill-rule="evenodd" clip-rule="evenodd" d="M15.74 6H5v11h14V9.825l-.874.636c-1.175.855-2.758-.293-2.31-1.676l.717-2.21L15.742 6h-.002Z" fill="#fff"/>
<path d="M19.525.601a.5.5 0 0 1 .95 0l.942 2.899h3.045a.5.5 0 0 1 .294.905l-2.46 1.787.94 2.897a.5.5 0 0 1-.77.56l-2.462-1.79-2.465 1.794a.5.5 0 0 1-.77-.559l.942-2.901-2.464-1.788a.5.5 0 0 1 .293-.905h3.042l.943-2.899Z" fill="#fff"/>
</svg>