<svg xmlns="http://www.w3.org/2000/svg" fill="none" viewBox="0 0 24 24">
  <g fill="#F5F5F5" clip-path="url(#a)">
    <path d="m9.997 17 4 .027.006-1-4-.027-.006 1Z"/>
    <path fill-rule="evenodd" d="M7.5 5A1.5 1.5 0 0 0 6 6.5v11A1.5 1.5 0 0 0 7.5 19h9a1.5 1.5 0 0 0 1.5-1.5v-11A1.5 1.5 0 0 0 16.5 5h-9ZM7 6.5a.5.5 0 0 1 .5-.5h9a.5.5 0 0 1 .5.5v11a.5.5 0 0 1-.5.5h-9a.5.5 0 0 1-.5-.5v-11Z" clip-rule="evenodd"/>
  </g>
  <defs>
    <clipPath id="a">
      <path fill="#fff" d="M0 0h24v24H0z"/>
    </clipPath>
  </defs>
</svg>