<svg xmlns="http://www.w3.org/2000/svg" fill="none" viewBox="0 0 24 24">
  <g fill="#F5F5F5" clip-path="url(#a)">
    <path d="M17 13v-3h-1v3h1Z"/>
    <path fill-rule="evenodd" d="M5 8.5v6A1.5 1.5 0 0 0 6.5 16h11a1.5 1.5 0 0 0 1.5-1.5v-6A1.5 1.5 0 0 0 17.5 7h-11A1.5 1.5 0 0 0 5 8.5Zm1 6v-6a.5.5 0 0 1 .5-.5h11a.5.5 0 0 1 .5.5v6a.5.5 0 0 1-.5.5h-11a.5.5 0 0 1-.5-.5Z" clip-rule="evenodd"/>
  </g>
  <defs>
    <clipPath id="a">
      <path fill="#fff" d="M0 0h24v24H0z"/>
    </clipPath>
  </defs>
</svg>