<svg fill="none" xmlns="http://www.w3.org/2000/svg" viewBox="0 0 112 89">
  <g clip-path="url(#a)">
    <g filter="url(#b)" shape-rendering="crispEdges">
      <path fill="#0073E6" fill-opacity=".4" d="M16.5 9.5h80v80h-80z"/>
      <path stroke="#0073E6" d="M17 10h79v79H17z"/>
    </g>
    <g filter="url(#c)">
      <rect x=".5" width="74" height="24" rx="2" fill="#0073E6"/>
      <path d="m11.781 11.465-1.058.187a1.254 1.254 0 0 0-.211-.386 1.044 1.044 0 0 0-.383-.301 1.387 1.387 0 0 0-.606-.117c-.33 0-.606.074-.828.222-.221.146-.332.335-.332.567 0 .2.075.362.223.484.148.122.388.223.719.3l.953.22c.552.127.963.324 1.234.59.271.265.406.61.406 1.035 0 .359-.104.68-.312.96a2.047 2.047 0 0 1-.863.657c-.368.159-.793.238-1.278.238-.672 0-1.22-.143-1.644-.43-.425-.289-.685-.699-.781-1.23l1.128-.172c.07.294.215.517.434.668.219.148.504.223.855.223.383 0 .69-.08.918-.239.23-.161.344-.358.344-.59a.613.613 0 0 0-.21-.472c-.139-.128-.351-.224-.637-.29l-1.016-.222c-.56-.127-.974-.33-1.242-.61-.266-.278-.399-.63-.399-1.058 0-.354.1-.664.297-.93.198-.265.472-.472.82-.62a2.995 2.995 0 0 1 1.2-.227c.648 0 1.159.14 1.531.422.372.278.619.652.738 1.12ZM15.983 10v.938h-3.277V10h3.277Zm-2.398-1.438h1.168v5.676c0 .227.034.397.101.512a.53.53 0 0 0 .262.23c.11.04.228.06.356.06.093 0 .176-.007.246-.02l.164-.032.21.965a2.29 2.29 0 0 1-.758.125 2.058 2.058 0 0 1-.858-.164 1.474 1.474 0 0 1-.645-.531c-.164-.24-.246-.54-.246-.902V8.563Zm4.429 9.688a2.432 2.432 0 0 1-.797-.129l.281-.957c.214.057.404.082.57.074a.683.683 0 0 0 .442-.187c.13-.117.245-.309.343-.574l.145-.399L16.803 10h1.25l1.52 4.656h.062L21.155 10h1.253l-2.473 6.8c-.114.313-.26.578-.437.794a1.697 1.697 0 0 1-.633.492 2.07 2.07 0 0 1-.851.164ZM24.674 8v8h-1.168V8h1.168Zm4.157 8.121c-.591 0-1.1-.126-1.527-.379a2.57 2.57 0 0 1-.985-1.074c-.229-.464-.343-1.006-.343-1.629 0-.614.114-1.156.343-1.625.232-.469.555-.835.97-1.098.416-.263.903-.394 1.46-.394.339 0 .667.056.984.168.318.112.603.288.856.527.253.24.452.551.598.934.145.38.218.842.218 1.386v.415h-4.77v-.875h3.626c0-.308-.063-.58-.188-.817a1.41 1.41 0 0 0-.527-.566 1.474 1.474 0 0 0-.79-.207c-.327 0-.614.08-.858.242-.243.159-.43.367-.563.625-.13.255-.195.533-.195.832v.684c0 .4.07.742.21 1.023.144.281.343.496.598.645.255.145.554.218.895.218.221 0 .423-.031.605-.094a1.256 1.256 0 0 0 .777-.762l1.106.2a2 2 0 0 1-.476.855 2.31 2.31 0 0 1-.856.567c-.341.133-.73.2-1.168.2Zm7.405-4.008v1.012H32.69v-1.012h3.546ZM40.594 10v.938h-3.278V10h3.278Zm-2.399-1.438h1.168v5.676c0 .227.034.397.102.512a.53.53 0 0 0 .262.23c.109.04.227.06.355.06.094 0 .176-.007.246-.02l.164-.032.211.965a2.292 2.292 0 0 1-.758.125 2.058 2.058 0 0 1-.86-.164 1.474 1.474 0 0 1-.644-.531c-.164-.24-.246-.54-.246-.902V8.563Zm5.437 7.57c-.38 0-.724-.07-1.031-.21a1.738 1.738 0 0 1-.73-.621c-.178-.271-.267-.603-.267-.996 0-.339.066-.617.196-.836.13-.219.306-.392.527-.52a2.77 2.77 0 0 1 .742-.289c.274-.065.552-.114.836-.148l.875-.102c.224-.028.387-.074.489-.137.101-.062.152-.164.152-.304v-.028c0-.34-.096-.605-.29-.793-.19-.187-.473-.28-.85-.28-.394 0-.704.086-.93.26a1.4 1.4 0 0 0-.465.575l-1.098-.25c.13-.364.32-.659.57-.883.253-.226.543-.39.872-.492a3.401 3.401 0 0 1 1.035-.156c.24 0 .493.029.761.086.271.055.524.156.758.305.237.148.431.36.582.636.151.274.227.63.227 1.067V16h-1.14v-.82h-.048a1.66 1.66 0 0 1-.34.445 1.806 1.806 0 0 1-.582.363 2.24 2.24 0 0 1-.851.145Zm.254-.937c.323 0 .599-.063.828-.191a1.34 1.34 0 0 0 .527-.5 1.29 1.29 0 0 0 .184-.668v-.774a.609.609 0 0 1-.242.118 3.772 3.772 0 0 1-.403.09l-.441.066-.36.047a2.899 2.899 0 0 0-.62.144 1.067 1.067 0 0 0-.446.293c-.11.125-.164.292-.164.5 0 .29.107.508.32.657.214.145.486.218.817.218Zm4.356.805V8h1.168v2.973h.07c.068-.125.166-.27.293-.434a1.67 1.67 0 0 1 .532-.43c.226-.125.526-.187.898-.187.484 0 .917.122 1.297.367.38.245.678.598.895 1.059.218.46.328 1.015.328 1.664 0 .648-.108 1.204-.325 1.668-.216.46-.513.816-.89 1.066a2.306 2.306 0 0 1-1.293.371c-.365 0-.663-.061-.895-.183a1.692 1.692 0 0 1-.539-.43c-.13-.164-.23-.31-.3-.438h-.098V16h-1.14Zm1.145-3c0 .422.06.792.183 1.11.123.317.3.566.532.745.231.178.515.266.851.266.35 0 .64-.092.875-.277.234-.188.412-.442.531-.762.123-.32.184-.681.184-1.082 0-.396-.06-.751-.18-1.066a1.633 1.633 0 0 0-.531-.746c-.234-.183-.527-.274-.879-.274-.338 0-.625.087-.86.262a1.607 1.607 0 0 0-.527.73c-.12.313-.18.677-.18 1.094Zm6.815-5v8h-1.168V8h1.168Zm4.157 8.121c-.59 0-1.1-.126-1.527-.379a2.57 2.57 0 0 1-.984-1.074c-.23-.464-.344-1.006-.344-1.629 0-.614.114-1.156.344-1.625.231-.469.554-.835.968-1.098.417-.263.904-.394 1.461-.394.339 0 .667.056.985.168.317.112.603.288.855.527.253.24.452.551.598.934.146.38.219.842.219 1.386v.415h-4.77v-.875h3.625c0-.308-.062-.58-.187-.817a1.412 1.412 0 0 0-.528-.566 1.474 1.474 0 0 0-.789-.207c-.328 0-.614.08-.86.242a1.635 1.635 0 0 0-.562.625c-.13.255-.195.533-.195.832v.684c0 .4.07.742.21 1.023.144.281.343.496.599.645.255.145.553.218.894.218.221 0 .423-.031.606-.094a1.256 1.256 0 0 0 .777-.762l1.105.2a2 2 0 0 1-.476.855 2.308 2.308 0 0 1-.856.567c-.34.133-.73.2-1.168.2ZM67.03 10v.938h-3.277V10h3.277Zm-2.398-1.438H65.8v5.676c0 .227.034.397.101.512a.53.53 0 0 0 .262.23c.11.04.228.06.356.06.093 0 .175-.007.246-.02l.164-.032.21.965a2.292 2.292 0 0 1-.758.125 2.057 2.057 0 0 1-.859-.164 1.474 1.474 0 0 1-.644-.531c-.164-.24-.246-.54-.246-.902V8.563Z" fill="#fff"/>
      <rect x="1" y=".5" width="73" height="23" rx="1.5" stroke="#2B2B2B" stroke-opacity=".5"/>
    </g>
  </g>
  <defs>
    <filter id="b" x="-23.5" y="9.5" width="160" height="160" filterUnits="userSpaceOnUse" color-interpolation-filters="sRGB">
      <feFlood flood-opacity="0" result="BackgroundImageFix"/>
      <feColorMatrix in="SourceAlpha" values="0 0 0 0 0 0 0 0 0 0 0 0 0 0 0 0 0 0 127 0" result="hardAlpha"/>
      <feMorphology radius="40" in="SourceAlpha" result="effect1_dropShadow_123_4735"/>
      <feOffset dy="40"/>
      <feGaussianBlur stdDeviation="40"/>
      <feComposite in2="hardAlpha" operator="out"/>
      <feColorMatrix values="0 0 0 0 0.05 0 0 0 0 0.25 0 0 0 0 0.45 0 0 0 1 0"/>
      <feBlend in2="BackgroundImageFix" result="effect1_dropShadow_123_4735"/>
      <feColorMatrix in="SourceAlpha" values="0 0 0 0 0 0 0 0 0 0 0 0 0 0 0 0 0 0 127 0" result="hardAlpha"/>
      <feMorphology radius="24" in="SourceAlpha" result="effect2_dropShadow_123_4735"/>
      <feOffset dy="24"/>
      <feGaussianBlur stdDeviation="20"/>
      <feComposite in2="hardAlpha" operator="out"/>
      <feColorMatrix values="0 0 0 0 0.0509804 0 0 0 0 0.25098 0 0 0 0 0.45098 0 0 0 0.25 0"/>
      <feBlend in2="effect1_dropShadow_123_4735" result="effect2_dropShadow_123_4735"/>
      <feColorMatrix in="SourceAlpha" values="0 0 0 0 0 0 0 0 0 0 0 0 0 0 0 0 0 0 127 0" result="hardAlpha"/>
      <feMorphology radius="16" in="SourceAlpha" result="effect3_dropShadow_123_4735"/>
      <feOffset dy="16"/>
      <feGaussianBlur stdDeviation="12"/>
      <feComposite in2="hardAlpha" operator="out"/>
      <feColorMatrix values="0 0 0 0 0.0509804 0 0 0 0 0.25098 0 0 0 0 0.45098 0 0 0 0.25 0"/>
      <feBlend in2="effect2_dropShadow_123_4735" result="effect3_dropShadow_123_4735"/>
      <feColorMatrix in="SourceAlpha" values="0 0 0 0 0 0 0 0 0 0 0 0 0 0 0 0 0 0 127 0" result="hardAlpha"/>
      <feMorphology radius="4" in="SourceAlpha" result="effect4_dropShadow_123_4735"/>
      <feOffset dy="4"/>
      <feGaussianBlur stdDeviation="4"/>
      <feComposite in2="hardAlpha" operator="out"/>
      <feColorMatrix values="0 0 0 0 0.0509804 0 0 0 0 0.25098 0 0 0 0 0.45098 0 0 0 0.25 0"/>
      <feBlend in2="effect3_dropShadow_123_4735" result="effect4_dropShadow_123_4735"/>
      <feBlend in="SourceGraphic" in2="effect4_dropShadow_123_4735" result="shape"/>
    </filter>
    <filter id="c" x="-3.5" y="0" width="82" height="36" filterUnits="userSpaceOnUse" color-interpolation-filters="sRGB">
      <feFlood flood-opacity="0" result="BackgroundImageFix"/>
      <feColorMatrix in="SourceAlpha" values="0 0 0 0 0 0 0 0 0 0 0 0 0 0 0 0 0 0 127 0" result="hardAlpha"/>
      <feMorphology radius="4" in="SourceAlpha" result="effect1_dropShadow_123_4735"/>
      <feOffset dy="8"/>
      <feGaussianBlur stdDeviation="4"/>
      <feComposite in2="hardAlpha" operator="out"/>
      <feColorMatrix values="0 0 0 0 0 0 0 0 0 0 0 0 0 0 0 0 0 0 0.25 0"/>
      <feBlend in2="BackgroundImageFix" result="effect1_dropShadow_123_4735"/>
      <feColorMatrix in="SourceAlpha" values="0 0 0 0 0 0 0 0 0 0 0 0 0 0 0 0 0 0 127 0" result="hardAlpha"/>
      <feMorphology radius="2" in="SourceAlpha" result="effect2_dropShadow_123_4735"/>
      <feOffset dy="4"/>
      <feGaussianBlur stdDeviation="2"/>
      <feComposite in2="hardAlpha" operator="out"/>
      <feColorMatrix values="0 0 0 0 0 0 0 0 0 0 0 0 0 0 0 0 0 0 0.25 0"/>
      <feBlend in2="effect1_dropShadow_123_4735" result="effect2_dropShadow_123_4735"/>
      <feBlend in="SourceGraphic" in2="effect2_dropShadow_123_4735" result="shape"/>
    </filter>
    <clipPath id="a">
      <path fill="#fff" d="M.5 0h111v89H.5z"/>
    </clipPath>
  </defs>
</svg>