<svg width="139" height="113" viewBox="0 0 139 113" fill="none" xmlns="http://www.w3.org/2000/svg">
<g clip-path="url(#clip0_64_76)">
<g filter="url(#filter0_dddd_64_76)">
<rect x="14" y="7.5" width="80" height="80" rx="8" fill="white"/>
</g>
<g filter="url(#filter1_dd_64_76)">
<rect x="42" y="35.5" width="83" height="24" rx="2" fill="#0073E6"/>
<path d="M51.0313 51.6172C50.5469 51.6172 50.1146 51.4935 49.7344 51.2461C49.3568 50.9961 49.0599 50.6406 48.8438 50.1797C48.6302 49.7161 48.5234 49.1602 48.5234 48.5117C48.5234 47.8633 48.6315 47.3086 48.8477 46.8477C49.0664 46.3867 49.3659 46.0339 49.7461 45.7891C50.1263 45.5443 50.5573 45.4219 51.0391 45.4219C51.4115 45.4219 51.7109 45.4844 51.9375 45.6094C52.1667 45.7318 52.3438 45.875 52.4688 46.0391C52.5964 46.2031 52.6953 46.3477 52.7656 46.4727H52.8359V43.5H54.0039V51.5H52.8633V50.5664H52.7656C52.6953 50.694 52.5938 50.8398 52.4609 51.0039C52.3307 51.168 52.151 51.3112 51.9219 51.4336C51.6927 51.556 51.3958 51.6172 51.0313 51.6172ZM51.2891 50.6211C51.625 50.6211 51.9089 50.5326 52.1406 50.3555C52.375 50.1758 52.5521 49.9271 52.6719 49.6094C52.7943 49.2917 52.8555 48.9219 52.8555 48.5C52.8555 48.0833 52.7956 47.7187 52.6758 47.4062C52.556 47.0937 52.3802 46.8503 52.1484 46.6758C51.9167 46.5013 51.6302 46.4141 51.2891 46.4141C50.9375 46.4141 50.6445 46.5052 50.4102 46.6875C50.1758 46.8698 49.9987 47.1185 49.8789 47.4336C49.7617 47.7487 49.7031 48.1042 49.7031 48.5C49.7031 48.901 49.763 49.2617 49.8828 49.582C50.0026 49.9023 50.1797 50.1562 50.4141 50.3437C50.651 50.5286 50.9427 50.6211 51.2891 50.6211ZM55.6709 51.5V45.5H56.7998V46.4531H56.8623C56.9717 46.1302 57.1644 45.8763 57.4404 45.6914C57.7191 45.5039 58.0342 45.4102 58.3857 45.4102C58.4587 45.4102 58.5446 45.4128 58.6436 45.418C58.7451 45.4232 58.8245 45.4297 58.8818 45.4375V46.5547C58.835 46.5417 58.7516 46.5273 58.6318 46.5117C58.512 46.4935 58.3923 46.4844 58.2725 46.4844C57.9964 46.4844 57.7503 46.543 57.5342 46.6602C57.3206 46.7747 57.1514 46.9349 57.0264 47.1406C56.9014 47.3437 56.8389 47.5755 56.8389 47.8359V51.5H55.6709ZM62.2051 51.6211C61.6426 51.6211 61.1517 51.4922 60.7324 51.2344C60.3132 50.9766 59.9876 50.6159 59.7559 50.1523C59.5241 49.6888 59.4082 49.1471 59.4082 48.5273C59.4082 47.9049 59.5241 47.3607 59.7559 46.8945C59.9876 46.4284 60.3132 46.0664 60.7324 45.8086C61.1517 45.5508 61.6426 45.4219 62.2051 45.4219C62.7676 45.4219 63.2585 45.5508 63.6777 45.8086C64.097 46.0664 64.4225 46.4284 64.6543 46.8945C64.8861 47.3607 65.002 47.9049 65.002 48.5273C65.002 49.1471 64.8861 49.6888 64.6543 50.1523C64.4225 50.6159 64.097 50.9766 63.6777 51.2344C63.2585 51.4922 62.7676 51.6211 62.2051 51.6211ZM62.209 50.6406C62.5736 50.6406 62.8757 50.5443 63.1152 50.3516C63.3548 50.1589 63.5319 49.9023 63.6465 49.582C63.7637 49.2617 63.8223 48.9089 63.8223 48.5234C63.8223 48.1406 63.7637 47.7891 63.6465 47.4687C63.5319 47.1458 63.3548 46.8867 63.1152 46.6914C62.8757 46.4961 62.5736 46.3984 62.209 46.3984C61.8418 46.3984 61.5371 46.4961 61.2949 46.6914C61.0553 46.8867 60.877 47.1458 60.7598 47.4687C60.6452 47.7891 60.5879 48.1406 60.5879 48.5234C60.5879 48.9089 60.6452 49.2617 60.7598 49.582C60.877 49.9023 61.0553 50.1589 61.2949 50.3516C61.5371 50.5443 61.8418 50.6406 62.209 50.6406ZM66.3057 53.75V45.5H67.4463V46.4727H67.5439C67.6117 46.3477 67.7093 46.2031 67.8369 46.0391C67.9645 45.875 68.1416 45.7318 68.3682 45.6094C68.5947 45.4844 68.8942 45.4219 69.2666 45.4219C69.751 45.4219 70.1833 45.5443 70.5635 45.7891C70.9437 46.0339 71.2419 46.3867 71.458 46.8477C71.6768 47.3086 71.7861 47.8633 71.7861 48.5117C71.7861 49.1602 71.6781 49.7161 71.4619 50.1797C71.2458 50.6406 70.9489 50.9961 70.5713 51.2461C70.1937 51.4935 69.7627 51.6172 69.2783 51.6172C68.9137 51.6172 68.6156 51.556 68.3838 51.4336C68.1546 51.3112 67.9749 51.168 67.8447 51.0039C67.7145 50.8398 67.6143 50.694 67.5439 50.5664H67.4736V53.75H66.3057ZM67.4502 48.5C67.4502 48.9219 67.5114 49.2917 67.6338 49.6094C67.7562 49.9271 67.9333 50.1758 68.165 50.3555C68.3968 50.5326 68.6807 50.6211 69.0166 50.6211C69.3656 50.6211 69.6572 50.5286 69.8916 50.3437C70.126 50.1562 70.3031 49.9023 70.4229 49.582C70.5452 49.2617 70.6064 48.901 70.6064 48.5C70.6064 48.1042 70.5465 47.7487 70.4268 47.4336C70.3096 47.1185 70.1325 46.8698 69.8955 46.6875C69.6611 46.5052 69.3682 46.4141 69.0166 46.4141C68.6781 46.4141 68.3916 46.5013 68.1572 46.6758C67.9255 46.8503 67.7497 47.0937 67.6299 47.4062C67.5101 47.7187 67.4502 48.0833 67.4502 48.5ZM76.6299 47.6133V48.625H73.083V47.6133H76.6299ZM82.6826 46.9648L81.624 47.1523C81.5798 47.0169 81.5094 46.888 81.4131 46.7656C81.3193 46.6432 81.1917 46.543 81.0303 46.4648C80.8688 46.3867 80.667 46.3477 80.4248 46.3477C80.0941 46.3477 79.818 46.4219 79.5967 46.5703C79.3753 46.7161 79.2646 46.9049 79.2646 47.1367C79.2646 47.3372 79.3389 47.4987 79.4873 47.6211C79.6357 47.7435 79.8753 47.8437 80.2061 47.9219L81.1592 48.1406C81.7113 48.2682 82.1227 48.4648 82.3936 48.7305C82.6644 48.9961 82.7998 49.3411 82.7998 49.7656C82.7998 50.125 82.6956 50.4453 82.4873 50.7266C82.2816 51.0052 81.9938 51.224 81.624 51.3828C81.2568 51.5417 80.8311 51.6211 80.3467 51.6211C79.6748 51.6211 79.1266 51.4779 78.7021 51.1914C78.2777 50.9023 78.0173 50.4922 77.9209 49.9609L79.0498 49.7891C79.1201 50.0833 79.2646 50.306 79.4834 50.457C79.7021 50.6055 79.9873 50.6797 80.3389 50.6797C80.7217 50.6797 81.0277 50.6003 81.2568 50.4414C81.486 50.2799 81.6006 50.0833 81.6006 49.8516C81.6006 49.6641 81.5303 49.5065 81.3896 49.3789C81.2516 49.2513 81.0394 49.1549 80.7529 49.0898L79.7373 48.8672C79.1774 48.7396 78.7633 48.5365 78.4951 48.2578C78.2295 47.9792 78.0967 47.6263 78.0967 47.1992C78.0967 46.8451 78.1956 46.5352 78.3936 46.2695C78.5915 46.0039 78.8649 45.7969 79.2139 45.6484C79.5628 45.4974 79.9626 45.4219 80.4131 45.4219C81.0615 45.4219 81.5719 45.5625 81.9443 45.8437C82.3167 46.1224 82.5628 46.4961 82.6826 46.9648ZM85.252 47.9375V51.5H84.084V43.5H85.2363V46.4766H85.3105C85.4512 46.1536 85.666 45.8971 85.9551 45.707C86.2441 45.5169 86.6217 45.4219 87.0879 45.4219C87.4993 45.4219 87.8587 45.5065 88.166 45.6758C88.4759 45.8451 88.7155 46.0977 88.8848 46.4336C89.0566 46.7669 89.1426 47.1836 89.1426 47.6836V51.5H87.9746V47.8242C87.9746 47.3841 87.8613 47.043 87.6348 46.8008C87.4082 46.556 87.0931 46.4336 86.6895 46.4336C86.4134 46.4336 86.166 46.4922 85.9473 46.6094C85.7311 46.7266 85.5605 46.8984 85.4355 47.125C85.3132 47.349 85.252 47.6198 85.252 47.9375ZM92.4473 51.6328C92.0671 51.6328 91.7233 51.5625 91.416 51.4219C91.1087 51.2786 90.8652 51.0716 90.6855 50.8008C90.5085 50.5299 90.4199 50.1979 90.4199 49.8047C90.4199 49.4661 90.485 49.1875 90.6152 48.9687C90.7454 48.75 90.9212 48.5768 91.1426 48.4492C91.3639 48.3216 91.6113 48.2253 91.8848 48.1602C92.1582 48.0951 92.4368 48.0456 92.7207 48.0117C93.0801 47.9701 93.3717 47.9362 93.5957 47.9102C93.8197 47.8815 93.9824 47.8359 94.084 47.7734C94.1855 47.7109 94.2363 47.6094 94.2363 47.4687V47.4414C94.2363 47.1003 94.14 46.8359 93.9473 46.6484C93.7572 46.4609 93.4733 46.3672 93.0957 46.3672C92.7025 46.3672 92.3926 46.4544 92.166 46.6289C91.9421 46.8008 91.7871 46.9922 91.7012 47.2031L90.6035 46.9531C90.7337 46.5885 90.9238 46.2943 91.1738 46.0703C91.4264 45.8437 91.7168 45.6797 92.0449 45.5781C92.373 45.474 92.7181 45.4219 93.0801 45.4219C93.3197 45.4219 93.5736 45.4505 93.8418 45.5078C94.1126 45.5625 94.3652 45.6641 94.5996 45.8125C94.8366 45.9609 95.0306 46.1732 95.1816 46.4492C95.3327 46.7227 95.4082 47.0781 95.4082 47.5156V51.5H94.2676V50.6797H94.2207C94.1452 50.8307 94.0319 50.9792 93.8809 51.125C93.7298 51.2708 93.5358 51.3919 93.2988 51.4883C93.0618 51.5846 92.778 51.6328 92.4473 51.6328ZM92.7012 50.6953C93.0241 50.6953 93.3001 50.6315 93.5293 50.5039C93.7611 50.3763 93.9368 50.2096 94.0566 50.0039C94.179 49.7956 94.2402 49.5729 94.2402 49.3359V48.5625C94.1986 48.6042 94.1178 48.6432 93.998 48.6797C93.8809 48.7135 93.7467 48.7435 93.5957 48.7695C93.4447 48.793 93.2975 48.8151 93.1543 48.8359C93.0111 48.8542 92.8913 48.8698 92.7949 48.8828C92.5684 48.9115 92.3613 48.9596 92.1738 49.0273C91.9889 49.0951 91.8405 49.1927 91.7285 49.3203C91.6191 49.4453 91.5645 49.612 91.5645 49.8203C91.5645 50.1094 91.6712 50.3281 91.8848 50.4766C92.0983 50.6224 92.3704 50.6953 92.7012 50.6953ZM99.21 51.6172C98.7256 51.6172 98.2933 51.4935 97.9131 51.2461C97.5355 50.9961 97.2386 50.6406 97.0225 50.1797C96.8089 49.7161 96.7021 49.1602 96.7021 48.5117C96.7021 47.8633 96.8102 47.3086 97.0264 46.8477C97.2451 46.3867 97.5446 46.0339 97.9248 45.7891C98.305 45.5443 98.736 45.4219 99.2178 45.4219C99.5902 45.4219 99.8896 45.4844 100.116 45.6094C100.345 45.7318 100.522 45.875 100.647 46.0391C100.775 46.2031 100.874 46.3477 100.944 46.4727H101.015V43.5H102.183V51.5H101.042V50.5664H100.944C100.874 50.694 100.772 50.8398 100.64 51.0039C100.509 51.168 100.33 51.3112 100.101 51.4336C99.8714 51.556 99.5745 51.6172 99.21 51.6172ZM99.4678 50.6211C99.8037 50.6211 100.088 50.5326 100.319 50.3555C100.554 50.1758 100.731 49.9271 100.851 49.6094C100.973 49.2917 101.034 48.9219 101.034 48.5C101.034 48.0833 100.974 47.7187 100.854 47.4062C100.735 47.0937 100.559 46.8503 100.327 46.6758C100.095 46.5013 99.8089 46.4141 99.4678 46.4141C99.1162 46.4141 98.8232 46.5052 98.5889 46.6875C98.3545 46.8698 98.1774 47.1185 98.0576 47.4336C97.9404 47.7487 97.8818 48.1042 97.8818 48.5C97.8818 48.901 97.9417 49.2617 98.0615 49.582C98.1813 49.9023 98.3584 50.1562 98.5928 50.3437C98.8298 50.5286 99.1214 50.6211 99.4678 50.6211ZM106.377 51.6211C105.814 51.6211 105.324 51.4922 104.904 51.2344C104.485 50.9766 104.16 50.6159 103.928 50.1523C103.696 49.6888 103.58 49.1471 103.58 48.5273C103.58 47.9049 103.696 47.3607 103.928 46.8945C104.16 46.4284 104.485 46.0664 104.904 45.8086C105.324 45.5508 105.814 45.4219 106.377 45.4219C106.939 45.4219 107.43 45.5508 107.85 45.8086C108.269 46.0664 108.594 46.4284 108.826 46.8945C109.058 47.3607 109.174 47.9049 109.174 48.5273C109.174 49.1471 109.058 49.6888 108.826 50.1523C108.594 50.6159 108.269 50.9766 107.85 51.2344C107.43 51.4922 106.939 51.6211 106.377 51.6211ZM106.381 50.6406C106.745 50.6406 107.048 50.5443 107.287 50.3516C107.527 50.1589 107.704 49.9023 107.818 49.582C107.936 49.2617 107.994 48.9089 107.994 48.5234C107.994 48.1406 107.936 47.7891 107.818 47.4687C107.704 47.1458 107.527 46.8867 107.287 46.6914C107.048 46.4961 106.745 46.3984 106.381 46.3984C106.014 46.3984 105.709 46.4961 105.467 46.6914C105.227 46.8867 105.049 47.1458 104.932 47.4687C104.817 47.7891 104.76 48.1406 104.76 48.5234C104.76 48.9089 104.817 49.2617 104.932 49.582C105.049 49.9023 105.227 50.1589 105.467 50.3516C105.709 50.5443 106.014 50.6406 106.381 50.6406ZM111.596 51.5L109.83 45.5H111.037L112.213 49.9062H112.271L113.451 45.5H114.658L115.83 49.8867H115.889L117.057 45.5H118.264L116.502 51.5H115.311L114.092 47.168H114.002L112.783 51.5H111.596Z" fill="white"/>
<rect x="42.5" y="36" width="82" height="23" rx="1.5" stroke="#2B2B2B" stroke-opacity="0.5"/>
</g>
</g>
<defs>
<filter id="filter0_dddd_64_76" x="-26" y="7.5" width="160" height="160" filterUnits="userSpaceOnUse" color-interpolation-filters="sRGB">
<feFlood flood-opacity="0" result="BackgroundImageFix"/>
<feColorMatrix in="SourceAlpha" type="matrix" values="0 0 0 0 0 0 0 0 0 0 0 0 0 0 0 0 0 0 127 0" result="hardAlpha"/>
<feMorphology radius="40" operator="erode" in="SourceAlpha" result="effect1_dropShadow_64_76"/>
<feOffset dy="40"/>
<feGaussianBlur stdDeviation="40"/>
<feComposite in2="hardAlpha" operator="out"/>
<feColorMatrix type="matrix" values="0 0 0 0 0 0 0 0 0 0 0 0 0 0 0 0 0 0 1 0"/>
<feBlend mode="normal" in2="BackgroundImageFix" result="effect1_dropShadow_64_76"/>
<feColorMatrix in="SourceAlpha" type="matrix" values="0 0 0 0 0 0 0 0 0 0 0 0 0 0 0 0 0 0 127 0" result="hardAlpha"/>
<feMorphology radius="24" operator="erode" in="SourceAlpha" result="effect2_dropShadow_64_76"/>
<feOffset dy="24"/>
<feGaussianBlur stdDeviation="20"/>
<feComposite in2="hardAlpha" operator="out"/>
<feColorMatrix type="matrix" values="0 0 0 0 0 0 0 0 0 0 0 0 0 0 0 0 0 0 0.25 0"/>
<feBlend mode="normal" in2="effect1_dropShadow_64_76" result="effect2_dropShadow_64_76"/>
<feColorMatrix in="SourceAlpha" type="matrix" values="0 0 0 0 0 0 0 0 0 0 0 0 0 0 0 0 0 0 127 0" result="hardAlpha"/>
<feMorphology radius="16" operator="erode" in="SourceAlpha" result="effect3_dropShadow_64_76"/>
<feOffset dy="16"/>
<feGaussianBlur stdDeviation="12"/>
<feComposite in2="hardAlpha" operator="out"/>
<feColorMatrix type="matrix" values="0 0 0 0 0 0 0 0 0 0 0 0 0 0 0 0 0 0 0.25 0"/>
<feBlend mode="normal" in2="effect2_dropShadow_64_76" result="effect3_dropShadow_64_76"/>
<feColorMatrix in="SourceAlpha" type="matrix" values="0 0 0 0 0 0 0 0 0 0 0 0 0 0 0 0 0 0 127 0" result="hardAlpha"/>
<feMorphology radius="4" operator="erode" in="SourceAlpha" result="effect4_dropShadow_64_76"/>
<feOffset dy="4"/>
<feGaussianBlur stdDeviation="4"/>
<feComposite in2="hardAlpha" operator="out"/>
<feColorMatrix type="matrix" values="0 0 0 0 0 0 0 0 0 0 0 0 0 0 0 0 0 0 0.25 0"/>
<feBlend mode="normal" in2="effect3_dropShadow_64_76" result="effect4_dropShadow_64_76"/>
<feBlend mode="normal" in="SourceGraphic" in2="effect4_dropShadow_64_76" result="shape"/>
</filter>
<filter id="filter1_dd_64_76" x="38" y="35.5" width="91" height="36" filterUnits="userSpaceOnUse" color-interpolation-filters="sRGB">
<feFlood flood-opacity="0" result="BackgroundImageFix"/>
<feColorMatrix in="SourceAlpha" type="matrix" values="0 0 0 0 0 0 0 0 0 0 0 0 0 0 0 0 0 0 127 0" result="hardAlpha"/>
<feMorphology radius="4" operator="erode" in="SourceAlpha" result="effect1_dropShadow_64_76"/>
<feOffset dy="8"/>
<feGaussianBlur stdDeviation="4"/>
<feComposite in2="hardAlpha" operator="out"/>
<feColorMatrix type="matrix" values="0 0 0 0 0 0 0 0 0 0 0 0 0 0 0 0 0 0 0.25 0"/>
<feBlend mode="normal" in2="BackgroundImageFix" result="effect1_dropShadow_64_76"/>
<feColorMatrix in="SourceAlpha" type="matrix" values="0 0 0 0 0 0 0 0 0 0 0 0 0 0 0 0 0 0 127 0" result="hardAlpha"/>
<feMorphology radius="2" operator="erode" in="SourceAlpha" result="effect2_dropShadow_64_76"/>
<feOffset dy="4"/>
<feGaussianBlur stdDeviation="2"/>
<feComposite in2="hardAlpha" operator="out"/>
<feColorMatrix type="matrix" values="0 0 0 0 0 0 0 0 0 0 0 0 0 0 0 0 0 0 0.25 0"/>
<feBlend mode="normal" in2="effect1_dropShadow_64_76" result="effect2_dropShadow_64_76"/>
<feBlend mode="normal" in="SourceGraphic" in2="effect2_dropShadow_64_76" result="shape"/>
</filter>
<clipPath id="clip0_64_76">
<rect width="139" height="113" fill="white"/>
</clipPath>
</defs>
</svg>
