<svg fill="none" xmlns="http://www.w3.org/2000/svg" viewBox="0 0 112 99">
  <g clip-path="url(#a)">
    <g filter="url(#b)" shape-rendering="crispEdges">
      <path fill="#0073E6" fill-opacity=".4" d="M16.5 9.5h80v80h-80z"/>
      <path stroke="#0073E6" d="M17 10h79v79H17z"/>
    </g>
    <g filter="url(#c)">
      <rect x=".5" width="65" height="24" rx="2" fill="#0073E6"/>
      <path d="M10.14 10v.938H6.75V10h3.39Zm-2.46 6V9.305c0-.375.082-.687.246-.934.164-.25.381-.436.652-.559a2.08 2.08 0 0 1 .883-.187c.234 0 .435.02.601.059.167.036.29.07.372.101l-.274.945a5.559 5.559 0 0 0-.21-.054 1.202 1.202 0 0 0-.313-.035c-.284 0-.487.07-.61.21-.12.141-.18.344-.18.61V16H7.68Zm3.666 0v-6h1.168v6h-1.168Zm.59-6.926a.742.742 0 0 1-.524-.203.66.66 0 0 1-.215-.492c0-.193.072-.357.215-.492a.735.735 0 0 1 .523-.207.72.72 0 0 1 .52.207c.146.135.219.3.219.492 0 .19-.073.354-.219.492a.729.729 0 0 1-.52.203ZM14.084 16v-6h1.129v.953h.062a1.45 1.45 0 0 1 .579-.762c.278-.187.593-.28.945-.28a4.988 4.988 0 0 1 .496.027v1.117a2.092 2.092 0 0 0-.25-.043 2.39 2.39 0 0 0-.36-.028c-.276 0-.522.059-.738.176a1.306 1.306 0 0 0-.695 1.176V16h-1.168Zm8.718-4.535-1.059.187a1.252 1.252 0 0 0-.21-.386 1.044 1.044 0 0 0-.384-.301 1.387 1.387 0 0 0-.605-.117c-.33 0-.607.074-.828.222-.222.146-.332.335-.332.567 0 .2.074.362.222.484.149.122.388.223.72.3l.952.22c.552.127.964.324 1.235.59.27.265.406.61.406 1.035 0 .359-.104.68-.313.96a2.047 2.047 0 0 1-.863.657c-.367.159-.793.238-1.277.238-.672 0-1.22-.143-1.645-.43-.424-.289-.685-.699-.781-1.23l1.129-.172c.07.294.215.517.433.668.22.148.504.223.856.223.383 0 .689-.08.918-.239.23-.161.344-.358.344-.59a.613.613 0 0 0-.211-.472c-.138-.128-.35-.224-.637-.29l-1.016-.222c-.56-.127-.973-.33-1.242-.61-.265-.278-.398-.63-.398-1.058 0-.354.099-.664.297-.93.198-.265.471-.472.82-.62a2.994 2.994 0 0 1 1.2-.227c.648 0 1.158.14 1.53.422.373.278.619.652.739 1.12ZM27.005 10v.938h-3.277V10h3.277Zm-2.399-1.438h1.168v5.676c0 .227.034.397.102.512a.53.53 0 0 0 .262.23c.11.04.228.06.355.06.094 0 .176-.007.246-.02l.164-.032.211.965a2.292 2.292 0 0 1-.758.125 2.058 2.058 0 0 1-.859-.164 1.474 1.474 0 0 1-.645-.531c-.163-.24-.246-.54-.246-.902V8.563Zm7.022 3.551v1.012H28.08v-1.012h3.547Zm4.084 4.008c-.58 0-1.08-.131-1.5-.394a2.611 2.611 0 0 1-.961-1.098c-.224-.466-.336-1-.336-1.602 0-.609.115-1.147.344-1.613.229-.469.552-.835.968-1.098.417-.263.908-.394 1.473-.394.456 0 .862.085 1.219.254.357.166.645.4.863.703.222.302.353.655.395 1.059H37.04a1.362 1.362 0 0 0-.43-.727c-.221-.203-.518-.305-.89-.305-.326 0-.611.086-.856.258-.242.17-.43.412-.566.727-.136.312-.203.682-.203 1.109 0 .438.066.815.199 1.133.133.318.32.564.562.738.245.175.533.262.864.262.221 0 .422-.04.601-.121.183-.084.335-.202.457-.356.125-.153.213-.338.262-.554h1.137a2.21 2.21 0 0 1-.38 1.039 2.18 2.18 0 0 1-.847.718c-.351.175-.764.262-1.238.262ZM40.594 8v8h-1.168V8h1.168Zm3.317 8.133c-.38 0-.724-.07-1.031-.211a1.738 1.738 0 0 1-.73-.621c-.178-.271-.266-.603-.266-.996 0-.339.065-.617.195-.836.13-.219.306-.392.527-.52a2.79 2.79 0 0 1 .743-.289c.273-.065.552-.114.836-.148l.875-.102c.223-.028.386-.074.488-.137.101-.062.152-.164.152-.304v-.028c0-.34-.096-.605-.289-.793-.19-.187-.474-.28-.851-.28-.394 0-.704.086-.93.26a1.4 1.4 0 0 0-.465.575l-1.098-.25c.13-.364.32-.659.57-.883.253-.226.544-.39.872-.492a3.401 3.401 0 0 1 1.035-.156c.24 0 .493.029.762.086.27.055.523.156.758.305.236.148.43.36.581.636.151.274.227.63.227 1.067V16h-1.14v-.82h-.047c-.076.15-.19.3-.34.445a1.806 1.806 0 0 1-.582.363 2.246 2.246 0 0 1-.852.145Zm.254-.938c.323 0 .599-.063.828-.191a1.34 1.34 0 0 0 .527-.5 1.29 1.29 0 0 0 .184-.668v-.774a.609.609 0 0 1-.242.118 3.772 3.772 0 0 1-.402.09l-.442.066-.36.047a2.899 2.899 0 0 0-.62.144 1.067 1.067 0 0 0-.446.293c-.109.125-.164.292-.164.5 0 .29.107.508.32.657.214.145.486.218.817.218Zm8.759-3.73-1.059.187a1.252 1.252 0 0 0-.21-.386 1.045 1.045 0 0 0-.383-.301 1.387 1.387 0 0 0-.606-.117c-.33 0-.607.074-.828.222-.221.146-.332.335-.332.567 0 .2.074.362.222.484.149.122.389.223.72.3l.952.22c.553.127.964.324 1.235.59.27.265.406.61.406 1.035 0 .359-.104.68-.313.96a2.047 2.047 0 0 1-.863.657c-.367.159-.793.238-1.277.238-.672 0-1.22-.143-1.645-.43-.424-.289-.684-.699-.78-1.23l1.128-.172c.07.294.215.517.434.668.218.148.503.223.855.223.383 0 .689-.08.918-.239.23-.161.344-.358.344-.59a.613.613 0 0 0-.211-.472c-.138-.128-.35-.224-.637-.29l-1.016-.222c-.56-.127-.973-.33-1.242-.61-.265-.278-.398-.63-.398-1.058 0-.354.099-.664.297-.93.198-.265.471-.472.82-.62a2.994 2.994 0 0 1 1.2-.227c.648 0 1.158.14 1.53.422.373.278.619.652.739 1.12Zm5.897 0-1.058.187a1.256 1.256 0 0 0-.211-.386 1.045 1.045 0 0 0-.383-.301 1.386 1.386 0 0 0-.605-.117c-.331 0-.607.074-.829.222-.221.146-.332.335-.332.567 0 .2.075.362.223.484.148.122.388.223.719.3l.953.22c.552.127.963.324 1.234.59.271.265.407.61.407 1.035 0 .359-.105.68-.313.96a2.047 2.047 0 0 1-.863.657c-.367.159-.793.238-1.278.238-.672 0-1.22-.143-1.644-.43-.425-.289-.685-.699-.781-1.23l1.128-.172c.07.294.215.517.434.668.219.148.504.223.855.223.383 0 .69-.08.919-.239.229-.161.343-.358.343-.59a.613.613 0 0 0-.21-.472c-.139-.128-.35-.224-.637-.29l-1.016-.222c-.56-.127-.974-.33-1.242-.61-.266-.278-.399-.63-.399-1.058 0-.354.1-.664.297-.93.198-.265.472-.472.82-.62a2.995 2.995 0 0 1 1.2-.227c.648 0 1.159.14 1.531.422.372.278.619.652.738 1.12Z" fill="#fff"/>
      <rect x="1" y=".5" width="64" height="23" rx="1.5" stroke="#2B2B2B" stroke-opacity=".5"/>
    </g>
    <g filter="url(#d)">
      <rect x=".5" y="32" width="81" height="24" rx="2" fill="#0073E6"/>
      <path d="M9.813 48.121c-.581 0-1.081-.131-1.5-.394a2.612 2.612 0 0 1-.961-1.098c-.224-.466-.336-1-.336-1.602 0-.609.114-1.147.343-1.613.23-.469.552-.835.97-1.098.416-.263.907-.394 1.472-.394.456 0 .862.085 1.219.254.356.166.644.4.863.703.221.302.353.655.394 1.059h-1.136a1.362 1.362 0 0 0-.43-.727c-.221-.203-.518-.305-.89-.305-.326 0-.611.086-.856.258-.242.17-.431.411-.567.727-.135.312-.203.682-.203 1.109 0 .438.067.815.2 1.133.132.317.32.564.562.738.245.175.533.262.863.262.222 0 .422-.04.602-.121.182-.084.335-.202.457-.356.125-.153.212-.338.262-.554h1.136a2.207 2.207 0 0 1-.379 1.039 2.18 2.18 0 0 1-.847.718c-.352.175-.764.262-1.239.262Zm6.24 0c-.562 0-1.053-.129-1.472-.387a2.608 2.608 0 0 1-.976-1.082c-.232-.463-.348-1.005-.348-1.625 0-.622.116-1.166.348-1.633.231-.466.557-.828.976-1.085.42-.258.91-.387 1.473-.387.562 0 1.053.129 1.472.387.42.257.745.62.977 1.086.232.466.348 1.01.348 1.632 0 .62-.116 1.162-.348 1.625a2.607 2.607 0 0 1-.977 1.082c-.419.258-.91.387-1.472.387Zm.005-.98c.364 0 .666-.097.906-.29.24-.192.417-.449.531-.769a3.06 3.06 0 0 0 .176-1.059c0-.382-.059-.734-.176-1.054a1.718 1.718 0 0 0-.531-.778c-.24-.195-.542-.293-.906-.293-.368 0-.672.098-.914.293-.24.196-.418.455-.536.778-.114.32-.171.672-.171 1.054 0 .386.057.739.171 1.059.118.32.296.577.536.77.242.192.546.289.914.289Zm4.096.859v-6h1.121v.977h.075a1.55 1.55 0 0 1 .613-.774c.284-.187.624-.281 1.02-.281.4 0 .736.094 1.007.281.274.188.476.445.606.774h.062c.143-.32.371-.576.684-.766.312-.193.685-.29 1.117-.29.544 0 .988.171 1.332.513.346.34.52.855.52 1.543V48h-1.168v-3.914c0-.406-.111-.7-.332-.883a1.207 1.207 0 0 0-.793-.273c-.38 0-.676.117-.887.351-.211.232-.317.53-.317.895V48H23.65v-3.988c0-.326-.101-.587-.304-.785-.203-.198-.468-.297-.793-.297-.222 0-.426.058-.614.175a1.29 1.29 0 0 0-.449.48 1.473 1.473 0 0 0-.168.716V48h-1.168Zm9.816 0v-8h1.168v2.973h.07a3.26 3.26 0 0 1 .293-.434c.128-.164.305-.307.531-.43.227-.125.526-.187.899-.187.484 0 .916.122 1.297.367.38.245.678.598.894 1.059.219.46.328 1.015.328 1.664 0 .648-.108 1.204-.324 1.668-.216.46-.513.816-.89 1.066a2.306 2.306 0 0 1-1.294.371c-.364 0-.662-.061-.894-.183a1.692 1.692 0 0 1-.54-.43c-.13-.164-.23-.31-.3-.438h-.098V48h-1.14Zm1.144-3c0 .422.061.792.184 1.11.122.317.3.566.531.745.232.178.516.266.852.266.349 0 .64-.092.875-.277.234-.188.411-.442.53-.762.123-.32.184-.681.184-1.082 0-.396-.06-.751-.18-1.066a1.633 1.633 0 0 0-.53-.746c-.235-.183-.528-.274-.88-.274-.338 0-.624.087-.859.262a1.607 1.607 0 0 0-.527.73 3.05 3.05 0 0 0-.18 1.094Zm8.175 3.121c-.562 0-1.053-.129-1.473-.387a2.608 2.608 0 0 1-.976-1.082c-.232-.463-.348-1.005-.348-1.625 0-.622.116-1.166.348-1.633.232-.466.557-.828.976-1.085.42-.258.91-.387 1.473-.387.563 0 1.053.129 1.473.387.419.257.745.62.976 1.086.232.466.348 1.01.348 1.632 0 .62-.116 1.162-.348 1.625a2.608 2.608 0 0 1-.976 1.082c-.42.258-.91.387-1.473.387Zm.004-.98c.365 0 .667-.097.906-.29.24-.192.417-.449.532-.769a3.06 3.06 0 0 0 .175-1.059c0-.382-.058-.734-.175-1.054a1.718 1.718 0 0 0-.532-.778c-.24-.195-.541-.293-.906-.293-.367 0-.672.098-.914.293-.24.196-.418.455-.535.778a3.1 3.1 0 0 0-.172 1.054c0 .386.057.739.172 1.059.117.32.295.577.535.77.242.192.547.289.914.289Zm7.632-3.028v1.012h-3.547v-1.012h3.547Zm4.084 4.008c-.58 0-1.08-.131-1.5-.394a2.611 2.611 0 0 1-.961-1.098c-.224-.466-.336-1-.336-1.602 0-.609.114-1.147.344-1.613.229-.469.552-.835.968-1.098.417-.263.908-.394 1.473-.394.456 0 .862.085 1.219.254.357.166.644.4.863.703.221.302.353.655.395 1.059h-1.137a1.362 1.362 0 0 0-.43-.727c-.221-.203-.518-.305-.89-.305-.326 0-.611.086-.856.258-.242.17-.43.411-.566.727-.136.312-.203.682-.203 1.109 0 .438.066.815.199 1.133.133.317.32.564.562.738.245.175.533.262.864.262.221 0 .421-.04.601-.121.182-.084.335-.202.457-.356.125-.153.212-.338.262-.554h1.137a2.207 2.207 0 0 1-.38 1.039 2.18 2.18 0 0 1-.847.718c-.352.175-.764.262-1.238.262ZM55.89 40v8h-1.168v-8h1.168Zm3.317 8.133c-.38 0-.724-.07-1.031-.211a1.738 1.738 0 0 1-.73-.621c-.178-.271-.266-.603-.266-.996 0-.339.065-.617.195-.836.13-.219.306-.392.527-.52.222-.127.47-.224.742-.289a7.39 7.39 0 0 1 .836-.148l.875-.102c.224-.028.387-.074.489-.137.101-.062.152-.164.152-.304v-.028c0-.34-.096-.605-.289-.793-.19-.187-.474-.28-.852-.28-.393 0-.703.086-.93.26a1.4 1.4 0 0 0-.464.575l-1.098-.25c.13-.364.32-.659.57-.883.253-.226.544-.39.872-.492a3.402 3.402 0 0 1 1.035-.156c.24 0 .493.029.761.086.271.054.524.156.758.304.237.149.431.361.582.637.151.274.227.63.227 1.067V48h-1.14v-.82h-.048c-.075.15-.188.3-.34.445a1.807 1.807 0 0 1-.581.363 2.26 2.26 0 0 1-.852.145Zm.254-.938c.323 0 .599-.063.828-.191a1.34 1.34 0 0 0 .527-.5 1.29 1.29 0 0 0 .184-.668v-.773a.609.609 0 0 1-.242.117 3.769 3.769 0 0 1-.403.09l-.441.066-.36.047a2.899 2.899 0 0 0-.62.144 1.067 1.067 0 0 0-.446.293c-.11.125-.164.292-.164.5 0 .29.107.508.32.657.214.145.486.218.817.218Zm8.759-3.73-1.059.187a1.256 1.256 0 0 0-.21-.386 1.045 1.045 0 0 0-.384-.301 1.387 1.387 0 0 0-.605-.117c-.33 0-.607.074-.828.222-.222.146-.332.335-.332.567 0 .2.074.362.222.484.149.122.388.223.72.3l.952.22c.552.127.964.324 1.235.59.27.265.406.61.406 1.035 0 .359-.104.68-.313.96a2.047 2.047 0 0 1-.863.657c-.367.159-.793.238-1.277.238-.672 0-1.22-.143-1.645-.43-.424-.289-.685-.699-.781-1.23l1.129-.172c.07.294.215.517.434.668.218.148.503.223.855.223.383 0 .689-.08.918-.239.23-.161.344-.358.344-.59a.613.613 0 0 0-.211-.472c-.138-.128-.35-.224-.637-.29l-1.016-.222c-.56-.127-.974-.33-1.242-.61-.265-.278-.398-.63-.398-1.058 0-.354.099-.664.297-.93.198-.265.471-.472.82-.62a2.994 2.994 0 0 1 1.2-.227c.648 0 1.158.14 1.53.422.373.278.619.652.739 1.12Zm5.897 0-1.058.187a1.254 1.254 0 0 0-.211-.386 1.044 1.044 0 0 0-.383-.301 1.387 1.387 0 0 0-.606-.117c-.33 0-.606.074-.828.222-.221.146-.332.335-.332.567 0 .2.074.362.223.484.148.122.388.223.719.3l.953.22c.552.127.963.324 1.234.59.27.265.406.61.406 1.035 0 .359-.104.68-.312.96a2.047 2.047 0 0 1-.863.657c-.368.159-.793.238-1.278.238-.672 0-1.22-.143-1.644-.43-.425-.289-.685-.699-.782-1.23l1.13-.172c.07.294.214.517.433.668.219.148.504.223.855.223.383 0 .69-.08.918-.239.23-.161.344-.358.344-.59a.613.613 0 0 0-.21-.472c-.139-.128-.351-.224-.637-.29l-1.016-.222c-.56-.127-.974-.33-1.242-.61-.266-.278-.399-.63-.399-1.058 0-.354.1-.664.297-.93.198-.265.472-.472.82-.62a2.995 2.995 0 0 1 1.2-.227c.648 0 1.158.14 1.53.422.373.278.62.652.74 1.12Z" fill="#fff"/>
      <rect x="1" y="32.5" width="80" height="23" rx="1.5" stroke="#2B2B2B" stroke-opacity=".5"/>
    </g>
    <path fill-rule="evenodd" clip-rule="evenodd" d="M96 49.5C96 71.315 78.315 89 56.5 89c-10.1 0-19.313-3.79-26.297-10.026l55.347-56.24C92.037 29.773 96 39.175 96 49.5ZM26.04 74.65l55.12-56.009A39.333 39.333 0 0 0 56.5 10C34.685 10 17 27.685 17 49.5a39.339 39.339 0 0 0 9.04 25.15ZM102 49.5C102 74.629 81.629 95 56.5 95S11 74.629 11 49.5 31.371 4 56.5 4 102 24.371 102 49.5Z" fill="#FF424D"/>
  </g>
  <defs>
    <filter id="b" x="-23.5" y="9.5" width="160" height="160" filterUnits="userSpaceOnUse" color-interpolation-filters="sRGB">
      <feFlood flood-opacity="0" result="BackgroundImageFix"/>
      <feColorMatrix in="SourceAlpha" values="0 0 0 0 0 0 0 0 0 0 0 0 0 0 0 0 0 0 127 0" result="hardAlpha"/>
      <feMorphology radius="40" in="SourceAlpha" result="effect1_dropShadow_148_167"/>
      <feOffset dy="40"/>
      <feGaussianBlur stdDeviation="40"/>
      <feComposite in2="hardAlpha" operator="out"/>
      <feColorMatrix values="0 0 0 0 0.05 0 0 0 0 0.25 0 0 0 0 0.45 0 0 0 1 0"/>
      <feBlend in2="BackgroundImageFix" result="effect1_dropShadow_148_167"/>
      <feColorMatrix in="SourceAlpha" values="0 0 0 0 0 0 0 0 0 0 0 0 0 0 0 0 0 0 127 0" result="hardAlpha"/>
      <feMorphology radius="24" in="SourceAlpha" result="effect2_dropShadow_148_167"/>
      <feOffset dy="24"/>
      <feGaussianBlur stdDeviation="20"/>
      <feComposite in2="hardAlpha" operator="out"/>
      <feColorMatrix values="0 0 0 0 0.0509804 0 0 0 0 0.25098 0 0 0 0 0.45098 0 0 0 0.25 0"/>
      <feBlend in2="effect1_dropShadow_148_167" result="effect2_dropShadow_148_167"/>
      <feColorMatrix in="SourceAlpha" values="0 0 0 0 0 0 0 0 0 0 0 0 0 0 0 0 0 0 127 0" result="hardAlpha"/>
      <feMorphology radius="16" in="SourceAlpha" result="effect3_dropShadow_148_167"/>
      <feOffset dy="16"/>
      <feGaussianBlur stdDeviation="12"/>
      <feComposite in2="hardAlpha" operator="out"/>
      <feColorMatrix values="0 0 0 0 0.0509804 0 0 0 0 0.25098 0 0 0 0 0.45098 0 0 0 0.25 0"/>
      <feBlend in2="effect2_dropShadow_148_167" result="effect3_dropShadow_148_167"/>
      <feColorMatrix in="SourceAlpha" values="0 0 0 0 0 0 0 0 0 0 0 0 0 0 0 0 0 0 127 0" result="hardAlpha"/>
      <feMorphology radius="4" in="SourceAlpha" result="effect4_dropShadow_148_167"/>
      <feOffset dy="4"/>
      <feGaussianBlur stdDeviation="4"/>
      <feComposite in2="hardAlpha" operator="out"/>
      <feColorMatrix values="0 0 0 0 0.0509804 0 0 0 0 0.25098 0 0 0 0 0.45098 0 0 0 0.25 0"/>
      <feBlend in2="effect3_dropShadow_148_167" result="effect4_dropShadow_148_167"/>
      <feBlend in="SourceGraphic" in2="effect4_dropShadow_148_167" result="shape"/>
    </filter>
    <filter id="c" x="-3.5" y="0" width="73" height="36" filterUnits="userSpaceOnUse" color-interpolation-filters="sRGB">
      <feFlood flood-opacity="0" result="BackgroundImageFix"/>
      <feColorMatrix in="SourceAlpha" values="0 0 0 0 0 0 0 0 0 0 0 0 0 0 0 0 0 0 127 0" result="hardAlpha"/>
      <feMorphology radius="4" in="SourceAlpha" result="effect1_dropShadow_148_167"/>
      <feOffset dy="8"/>
      <feGaussianBlur stdDeviation="4"/>
      <feComposite in2="hardAlpha" operator="out"/>
      <feColorMatrix values="0 0 0 0 0 0 0 0 0 0 0 0 0 0 0 0 0 0 0.25 0"/>
      <feBlend in2="BackgroundImageFix" result="effect1_dropShadow_148_167"/>
      <feColorMatrix in="SourceAlpha" values="0 0 0 0 0 0 0 0 0 0 0 0 0 0 0 0 0 0 127 0" result="hardAlpha"/>
      <feMorphology radius="2" in="SourceAlpha" result="effect2_dropShadow_148_167"/>
      <feOffset dy="4"/>
      <feGaussianBlur stdDeviation="2"/>
      <feComposite in2="hardAlpha" operator="out"/>
      <feColorMatrix values="0 0 0 0 0 0 0 0 0 0 0 0 0 0 0 0 0 0 0.25 0"/>
      <feBlend in2="effect1_dropShadow_148_167" result="effect2_dropShadow_148_167"/>
      <feBlend in="SourceGraphic" in2="effect2_dropShadow_148_167" result="shape"/>
    </filter>
    <filter id="d" x="-3.5" y="32" width="89" height="36" filterUnits="userSpaceOnUse" color-interpolation-filters="sRGB">
      <feFlood flood-opacity="0" result="BackgroundImageFix"/>
      <feColorMatrix in="SourceAlpha" values="0 0 0 0 0 0 0 0 0 0 0 0 0 0 0 0 0 0 127 0" result="hardAlpha"/>
      <feMorphology radius="4" in="SourceAlpha" result="effect1_dropShadow_148_167"/>
      <feOffset dy="8"/>
      <feGaussianBlur stdDeviation="4"/>
      <feComposite in2="hardAlpha" operator="out"/>
      <feColorMatrix values="0 0 0 0 0 0 0 0 0 0 0 0 0 0 0 0 0 0 0.25 0"/>
      <feBlend in2="BackgroundImageFix" result="effect1_dropShadow_148_167"/>
      <feColorMatrix in="SourceAlpha" values="0 0 0 0 0 0 0 0 0 0 0 0 0 0 0 0 0 0 127 0" result="hardAlpha"/>
      <feMorphology radius="2" in="SourceAlpha" result="effect2_dropShadow_148_167"/>
      <feOffset dy="4"/>
      <feGaussianBlur stdDeviation="2"/>
      <feComposite in2="hardAlpha" operator="out"/>
      <feColorMatrix values="0 0 0 0 0 0 0 0 0 0 0 0 0 0 0 0 0 0 0.25 0"/>
      <feBlend in2="effect1_dropShadow_148_167" result="effect2_dropShadow_148_167"/>
      <feBlend in="SourceGraphic" in2="effect2_dropShadow_148_167" result="shape"/>
    </filter>
    <clipPath id="a">
      <path fill="#fff" d="M.5 0h111v99H.5z"/>
    </clipPath>
  </defs>
</svg>